# xmcd
# 
# Track frame offsets:
#     150
#     25222
#     40347
#     55860
#     69267
#     85450
#     105122
#     124805
#     148102
#     162335
#     185977
#     203402
# 
# Disc length: 3057
# 
# Revision: 2
# Processed by: cddbd v1.5.2PL0 Copyright (c) Steve Scherf et al.
# Submitted via: fre:ac v1.0.27
# 
DISCID=a30bef0c
DTITLE=Benny - El Tiempo
DYEAR=1994
DGENRE=Latin
TTITLE0=Sin Tí
TTITLE1=No Me Va Tan Mal
TTITLE2=Mía
TTITLE3=Me Das Miedo
TTITLE4=Cielo
TTITLE5=Nuevo Amanecer
TTITLE6=Canción De Luna
TTITLE7=Como Un Angel
TTITLE8=Yo Me Enamoré De Tí
TTITLE9=Tu Rosa
TTITLE10=Estoy
TTITLE11=El Tiempo
EXTD=
EXTT0=
EXTT1=
EXTT2=
EXTT3=
EXTT4=
EXTT5=
EXTT6=
EXTT7=
EXTT8=
EXTT9=
EXTT10=
EXTT11=
PLAYORDER=
